<svg width="63" height="63" viewBox="0 0 63 63" fill="none" xmlns="http://www.w3.org/2000/svg">
<rect width="63" height="63" rx="10" fill="url(#paint0_linear_449_2513)"/>
<path d="M48.4314 58.4314L31.6143 33.4902H30.3029L9.16573 4H17.8057L34.4686 27.451H35.78L56.9172 58.4314H48.4314ZM8.24001 58.4314L28.9914 29.4902L28.2135 30.5751L16.4172 58.4314H8.24001ZM36.2429 32.1569L37.6384 30.1748L47.8914 4H56.0686L36.2429 32.1569Z" fill="url(#paint1_linear_449_2513)"/>
<path d="M32.0771 60C28.2714 60 24.7229 59.2941 21.4314 57.8824C18.14 56.4183 15.26 54.4052 12.7914 51.8431C10.3229 49.2288 8.39429 46.2222 7.00572 42.8235C5.66857 39.4248 5 35.7909 5 31.9216C5 28 5.66857 24.366 7.00572 21.0196C8.39429 17.6209 10.2971 14.6405 12.7143 12.0784C15.1829 9.51634 18.0371 7.52941 21.2771 6.11765C24.5686 4.70588 28.1171 4 31.9229 4C35.7286 4 39.2514 4.70588 42.4914 6.11765C45.7829 7.52941 48.6629 9.51634 51.1314 12.0784C53.6 14.6405 55.5286 17.6209 56.9172 21.0196C58.3057 24.4183 59 28.0784 59 32C59 35.8693 58.3057 39.5033 56.9172 42.902C55.5286 46.3007 53.6 49.281 51.1314 51.8431C48.7143 54.4052 45.86 56.4183 42.5686 57.8824C39.3286 59.2941 35.8314 60 32.0771 60ZM31.9229 52.9412C35.78 52.9412 39.1486 52.0523 42.0286 50.2745C44.96 48.4444 47.2743 45.9608 48.9714 42.8235C50.6686 39.634 51.5172 36 51.5172 31.9216C51.5172 28.8889 51.0286 26.1176 50.0514 23.6078C49.0743 21.0458 47.7114 18.8235 45.9629 16.9412C44.2143 15.0588 42.1571 13.6209 39.7914 12.6275C37.4257 11.5817 34.8029 11.0588 31.9229 11.0588C28.1171 11.0588 24.7486 11.9477 21.8172 13.7255C18.9371 15.5033 16.6486 17.9608 14.9514 21.098C13.3057 24.2353 12.4829 27.8431 12.4829 31.9216C12.4829 34.9542 12.9457 37.7778 13.8714 40.3922C14.8486 42.9542 16.1857 45.1765 17.8829 47.0588C19.6314 48.8889 21.6886 50.3268 24.0543 51.3726C26.4714 52.4183 29.0943 52.9412 31.9229 52.9412Z" fill="url(#paint2_linear_449_2513)"/>
<defs>
<linearGradient id="paint0_linear_449_2513" x1="63" y1="-1.87755e-06" x2="3.2246e-07" y2="61.8947" gradientUnits="userSpaceOnUse">
<stop stop-color="#9BE6F7"/>
<stop offset="1" stop-color="#9BE6F7" stop-opacity="0.22"/>
</linearGradient>
<linearGradient id="paint1_linear_449_2513" x1="52.5" y1="4" x2="2" y2="65.5" gradientUnits="userSpaceOnUse">
<stop stop-color="#AB57FF"/>
<stop offset="1" stop-color="#E06B39"/>
</linearGradient>
<linearGradient id="paint2_linear_449_2513" x1="52.5" y1="4" x2="2" y2="65.5" gradientUnits="userSpaceOnUse">
<stop stop-color="#AB57FF"/>
<stop offset="1" stop-color="#E06B39"/>
</linearGradient>
</defs>
</svg>
